<svg width="85" height="29" viewBox="0 0 85 29" fill="none" xmlns="http://www.w3.org/2000/svg">
<path d="M24.7311 28H18.5135L7.24181 10.8159C6.58064 9.81142 6.1229 9.05488 5.8686 8.54629H5.79231C5.89403 9.51262 5.94489 10.9875 5.94489 12.9711V28H0.127852V0.65037H6.765L17.6171 17.3005C18.113 18.0506 18.5707 18.7945 18.9903 19.5319H19.0666C18.9649 18.8962 18.914 17.6438 18.914 15.7747V0.65037H24.7311V28ZM46.7977 5.66638H37.1471V12.3798H46.0157V17.3767H37.1471V28H30.9868V0.65037H46.7977V5.66638ZM71.0195 5.66638H63.2189V28H57.0395V5.66638H49.2771V0.65037H71.0195V5.66638ZM69.8942 27.485V22.6025C70.886 23.2001 71.8714 23.6452 72.8504 23.9376C73.8422 24.23 74.7767 24.3763 75.654 24.3763C76.7221 24.3763 77.5613 24.23 78.1716 23.9376C78.7946 23.6452 79.1061 23.2001 79.1061 22.6025C79.1061 22.2211 78.9662 21.9032 78.6865 21.6489C78.4068 21.3946 78.0444 21.1721 77.5994 20.9814C77.1671 20.7907 76.6903 20.619 76.169 20.4665C75.6477 20.3139 75.1454 20.1422 74.6623 19.9515C73.8867 19.6591 73.2001 19.3475 72.6025 19.017C72.0176 18.6737 71.5217 18.2795 71.1148 17.8345C70.7207 17.3895 70.4155 16.8745 70.1994 16.2896C69.9959 15.7047 69.8942 15.0118 69.8942 14.2108C69.8942 13.1173 70.1294 12.1764 70.5999 11.3881C71.083 10.5997 71.7188 9.95764 72.5071 9.46176C73.3081 8.95316 74.2173 8.58443 75.2344 8.35557C76.2643 8.11398 77.3324 7.99319 78.4386 7.99319C79.3032 7.99319 80.1805 8.06312 81.0706 8.20299C81.9606 8.33014 82.8379 8.52086 83.7025 8.77516V13.4288C82.9396 12.9838 82.1195 12.6532 81.2422 12.437C80.3776 12.2082 79.5257 12.0937 78.6865 12.0937C78.2924 12.0937 77.9173 12.1319 77.5613 12.2082C77.218 12.2717 76.9128 12.3735 76.6458 12.5133C76.3788 12.6405 76.169 12.8121 76.0164 13.0283C75.8638 13.2317 75.7875 13.4669 75.7875 13.7339C75.7875 14.09 75.902 14.3951 76.1308 14.6494C76.3597 14.9037 76.6585 15.1262 77.0272 15.3169C77.396 15.495 77.8028 15.6602 78.2479 15.8128C78.7056 15.9527 79.157 16.0989 79.602 16.2515C80.403 16.5312 81.1278 16.8364 81.7762 17.167C82.4247 17.4975 82.9778 17.8853 83.4355 18.3304C83.906 18.7754 84.262 19.2967 84.5036 19.8943C84.7579 20.4919 84.885 21.2039 84.885 22.0304C84.885 23.1874 84.6307 24.1792 84.1221 25.0057C83.6262 25.8194 82.9587 26.4869 82.1195 27.0082C81.2931 27.5168 80.3331 27.8856 79.2396 28.1144C78.1589 28.356 77.0336 28.4768 75.8638 28.4768C73.715 28.4768 71.7251 28.1462 69.8942 27.485Z" fill="#EA5BDB"/>
</svg>
